<svg id="Layer_1" data-name="Layer 1" xmlns="http://www.w3.org/2000/svg" viewBox="0 0 84.59 31.09"><title>cce</title><path d="M36.12,28.57,42,30.44a13.24,13.24,0,0,1-4.51,7.31,12.83,12.83,0,0,1-8,2.39,12.92,12.92,0,0,1-9.85-4.09Q15.82,32,15.82,24.86q0-7.5,3.87-11.66a13.33,13.33,0,0,1,10.2-4.15,12.53,12.53,0,0,1,9,3.26,11.9,11.9,0,0,1,3.07,5.54l-6,1.43a6.21,6.21,0,0,0-6.34-5,6.85,6.85,0,0,0-5.43,2.4c-1.38,1.6-2.08,4.19-2.08,7.77,0,3.8.69,6.51,2.05,8.12A6.66,6.66,0,0,0,29.46,35a6.05,6.05,0,0,0,4.16-1.54A8.92,8.92,0,0,0,36.12,28.57Z" transform="translate(-15.82 -9.05)" style="fill:#fff"/><path d="M66.45,28.57l5.89,1.87a13.24,13.24,0,0,1-4.51,7.31,12.83,12.83,0,0,1-8,2.39A12.94,12.94,0,0,1,50,36.05Q46.15,32,46.15,24.86q0-7.5,3.87-11.66a13.35,13.35,0,0,1,10.2-4.15,12.53,12.53,0,0,1,9,3.26,11.81,11.81,0,0,1,3.07,5.54l-6,1.43a6.21,6.21,0,0,0-6.34-5,6.85,6.85,0,0,0-5.43,2.4c-1.38,1.6-2.08,4.19-2.08,7.77,0,3.8.69,6.51,2.05,8.12A6.66,6.66,0,0,0,59.79,35,6.05,6.05,0,0,0,64,33.41,8.86,8.86,0,0,0,66.45,28.57Z" transform="translate(-15.82 -9.05)" style="fill:#fff"/><path d="M77.55,39.63V9.56H99.84v5.09H83.62v6.66H98.71v5.07H83.62v8.18h16.79v5.07Z" transform="translate(-15.82 -9.05)" style="fill:#fff"/></svg>