<svg id="Layer_1" data-name="Layer 1" xmlns="http://www.w3.org/2000/svg" xmlns:xlink="http://www.w3.org/1999/xlink" viewBox="0 0 84.59 31.09"><defs><linearGradient id="linear-gradient" x1="34.91" y1="-2.03" x2="88.49" y2="51.55" gradientUnits="userSpaceOnUse"><stop offset="0" stop-color="#0089ff"/><stop offset="1" stop-color="#02def2"/></linearGradient></defs><title>cce_default</title><path d="M36.12,28.57,42,30.44a13.24,13.24,0,0,1-4.51,7.31,12.83,12.83,0,0,1-8,2.39,12.92,12.92,0,0,1-9.85-4.09Q15.82,32,15.82,24.86q0-7.5,3.87-11.66a13.33,13.33,0,0,1,10.2-4.15,12.53,12.53,0,0,1,9,3.26,11.9,11.9,0,0,1,3.07,5.54l-6,1.43a6.21,6.21,0,0,0-6.34-5,6.85,6.85,0,0,0-5.43,2.4c-1.38,1.6-2.08,4.19-2.08,7.77,0,3.8.69,6.51,2.05,8.12A6.66,6.66,0,0,0,29.46,35a6.05,6.05,0,0,0,4.16-1.54A8.92,8.92,0,0,0,36.12,28.57ZM64,33.41A6.05,6.05,0,0,1,59.79,35a6.66,6.66,0,0,1-5.34-2.42c-1.36-1.61-2.05-4.32-2.05-8.12,0-3.58.7-6.17,2.08-7.77a6.85,6.85,0,0,1,5.43-2.4,6.21,6.21,0,0,1,6.34,5l6-1.43a11.81,11.81,0,0,0-3.07-5.54,12.53,12.53,0,0,0-9-3.26A13.35,13.35,0,0,0,50,13.2q-3.87,4.16-3.87,11.66Q46.15,32,50,36.05a12.94,12.94,0,0,0,9.85,4.09,12.83,12.83,0,0,0,8-2.39,13.24,13.24,0,0,0,4.51-7.31l-5.89-1.87A8.86,8.86,0,0,1,64,33.41Zm19.67,1.15V26.38H98.71V21.31H83.62V14.65H99.84V9.56H77.55V39.63h22.86V34.56Z" transform="translate(-15.82 -9.05)" style="fill:url(#linear-gradient)"/></svg>